<svg width="476" height="294" viewBox="0 0 476 294" fill="none" xmlns="http://www.w3.org/2000/svg">
<path d="M37.5312 140H1.69141C1.17057 140 0.910156 139.674 0.910156 139.023L1.30078 1.62109C1.30078 1.10026 1.5612 0.839844 2.08203 0.839844H40.5586C48.0456 0.839844 54.849 2.66276 60.9688 6.30859C66.9583 9.95443 71.6784 14.8047 75.1289 20.8594C78.5794 26.849 80.3047 33.3594 80.3047 40.3906C80.3047 46.1198 79.0026 51.4583 76.3984 56.4062C73.7943 61.3542 70.7018 65.3581 67.1211 68.418C70.9622 72.2591 73.957 76.7188 76.1055 81.7969C78.2539 86.875 79.3281 92.2135 79.3281 97.8125C79.3281 105.56 77.4727 112.624 73.7617 119.004C69.9857 125.384 64.9401 130.495 58.625 134.336C52.3099 138.112 45.2786 140 37.5312 140ZM40.5586 24.5703H25.3242V56.0156H40.5586C45.181 56.0156 48.9245 54.388 51.7891 51.1328C54.6536 47.8125 56.0859 44.2318 56.0859 40.3906C56.0859 36.1589 54.556 32.4805 51.4961 29.3555C48.4362 26.1654 44.7904 24.5703 40.5586 24.5703ZM37.5312 80.2344H25.3242L25.1289 115.586H37.5312C42.349 115.586 46.4831 113.828 49.9336 110.312C53.3841 106.797 55.1094 102.63 55.1094 97.8125C55.1094 92.9948 53.3841 88.8607 49.9336 85.4102C46.4831 81.9596 42.349 80.2344 37.5312 80.2344ZM130.5 141.953C123.469 141.953 116.958 140.13 110.969 136.484C104.979 132.839 100.194 127.956 96.6133 121.836C93.0977 115.651 91.3398 108.913 91.3398 101.621L91.7305 1.62109C91.7305 1.10026 91.9909 0.839844 92.5117 0.839844H114.973C115.493 0.839844 115.754 1.10026 115.754 1.62109V101.621C115.754 106.113 117.186 109.954 120.051 113.145C122.915 116.27 126.398 117.832 130.5 117.832C134.797 117.832 138.378 116.27 141.242 113.145C144.107 109.954 145.539 106.113 145.539 101.621V1.62109C145.539 1.10026 145.799 0.839844 146.32 0.839844H168.781C169.302 0.839844 169.562 1.10026 169.562 1.62109L169.953 101.621C169.953 108.978 168.195 115.749 164.68 121.934C161.099 128.053 156.346 132.936 150.422 136.582C144.497 140.163 137.857 141.953 130.5 141.953ZM209.113 140H186.457C185.936 140 185.676 139.674 185.676 139.023L186.066 1.62109C186.066 1.10026 186.327 0.839844 186.848 0.839844H227.277C234.504 0.839844 241.145 2.59766 247.199 6.11328C253.254 9.62891 258.072 14.349 261.652 20.2734C265.298 26.1979 267.121 32.9036 267.121 40.3906C267.121 45.2734 266.372 49.7005 264.875 53.6719C263.378 57.6432 261.62 60.9961 259.602 63.7305C257.648 66.4648 255.858 68.4831 254.23 69.7852C261.457 77.793 265.07 87.2005 265.07 98.0078L265.266 139.023C265.266 139.674 264.94 140 264.289 140H241.633C241.112 140 240.852 139.805 240.852 139.414V98.0078C240.852 93.1901 239.159 89.0234 235.773 85.5078C232.388 81.9922 228.221 80.2344 223.273 80.2344H210.09L209.895 139.023C209.895 139.674 209.634 140 209.113 140ZM227.277 24.7656H210.09V56.2109H227.277C231.379 56.2109 235.025 54.681 238.215 51.6211C241.47 48.5612 243.098 44.8177 243.098 40.3906C243.098 36.1589 241.535 32.513 238.41 29.4531C235.285 26.3281 231.574 24.7656 227.277 24.7656ZM303.938 140H283.918C282.876 140 282.355 139.544 282.355 138.633L282.16 2.40234C282.16 1.36068 282.681 0.839844 283.723 0.839844H301.789L335.578 79.6484L334.602 2.40234C334.602 1.36068 335.188 0.839844 336.359 0.839844H356.184C356.965 0.839844 357.355 1.36068 357.355 2.40234L357.551 138.828C357.551 139.609 357.225 140 356.574 140H338.996L304.328 66.3672L305.793 138.438C305.793 139.479 305.174 140 303.938 140ZM24.3477 292H1.69141C1.17057 292 0.910156 291.74 0.910156 291.219V268.562C0.910156 268.042 1.17057 267.781 1.69141 267.781H24.3477C24.8685 267.781 25.1289 268.042 25.1289 268.562V291.219C25.1289 291.74 24.8685 292 24.3477 292ZM78.3516 293.953C71.125 293.953 64.5169 292.13 58.5273 288.484C52.6029 284.839 47.8828 279.956 44.3672 273.836C40.9167 267.651 39.1914 260.783 39.1914 253.23L39.3867 190.828C39.3867 183.406 41.0794 176.701 44.4648 170.711C47.8503 164.656 52.5052 159.806 58.4297 156.16C64.4193 152.449 71.0599 150.594 78.3516 150.594C85.7734 150.594 92.3815 152.384 98.1758 155.965C104.035 159.546 108.69 164.396 112.141 170.516C115.656 176.57 117.414 183.341 117.414 190.828V200.008C117.414 200.529 117.154 200.789 116.633 200.789H94.1719C93.651 200.789 93.3906 200.529 93.3906 200.008V190.828C93.3906 186.401 91.9583 182.592 89.0938 179.402C86.2292 176.212 82.6484 174.617 78.3516 174.617C73.599 174.617 69.9531 176.245 67.4141 179.5C64.875 182.755 63.6055 186.531 63.6055 190.828V253.23C63.6055 258.113 65.0378 262.117 67.9023 265.242C70.7669 268.302 74.25 269.832 78.3516 269.832C82.6484 269.832 86.2292 268.139 89.0938 264.754C91.9583 261.303 93.3906 257.462 93.3906 253.23V243.953C93.3906 243.432 93.651 243.172 94.1719 243.172H116.828C117.349 243.172 117.609 243.432 117.609 243.953V253.23C117.609 260.717 115.852 267.553 112.336 273.738C108.755 279.858 104.035 284.773 98.1758 288.484C92.3164 292.13 85.7083 293.953 78.3516 293.953ZM169.172 293.953C162.076 293.953 155.533 292.13 149.543 288.484C143.618 284.839 138.833 279.988 135.188 273.934C131.607 267.814 129.816 261.108 129.816 253.816L130.012 190.438C130.012 183.016 131.802 176.342 135.383 170.418C138.898 164.428 143.651 159.643 149.641 156.062C155.63 152.417 162.141 150.594 169.172 150.594C176.464 150.594 183.007 152.384 188.801 155.965C194.66 159.546 199.348 164.363 202.863 170.418C206.444 176.408 208.234 183.081 208.234 190.438L208.43 253.816C208.43 261.108 206.672 267.781 203.156 273.836C199.576 279.956 194.823 284.839 188.898 288.484C182.974 292.13 176.398 293.953 169.172 293.953ZM169.172 269.832C173.208 269.832 176.724 268.204 179.719 264.949C182.714 261.629 184.211 257.918 184.211 253.816L184.016 190.438C184.016 186.01 182.616 182.267 179.816 179.207C177.017 176.147 173.469 174.617 169.172 174.617C165.07 174.617 161.555 176.115 158.625 179.109C155.695 182.104 154.23 185.88 154.23 190.438V253.816C154.23 258.178 155.695 261.954 158.625 265.145C161.555 268.27 165.07 269.832 169.172 269.832ZM260.383 291.805L224.543 292C223.892 292 223.566 291.674 223.566 291.023L223.957 153.621C223.957 153.1 224.217 152.84 224.738 152.84L262.141 152.645C269.562 152.449 276.268 154.142 282.258 157.723C288.312 161.303 293.13 166.154 296.711 172.273C300.357 178.328 302.18 185.034 302.18 192.391V249.812C302.18 257.495 300.324 264.526 296.613 270.906C292.837 277.221 287.824 282.267 281.574 286.043C275.324 289.754 268.26 291.674 260.383 291.805ZM262.141 176.57L248.176 176.766L247.98 267.391H260.383C265.331 267.391 269.497 265.665 272.883 262.215C276.268 258.764 277.961 254.63 277.961 249.812V192.195C277.961 187.964 276.398 184.285 273.273 181.16C270.148 177.97 266.438 176.44 262.141 176.57ZM383.332 292H318.684C318.163 292 317.902 291.674 317.902 291.023L318.098 153.621C318.098 153.1 318.358 152.84 318.879 152.84H383.137C383.658 152.84 383.918 153.165 383.918 153.816V176.18C383.918 176.701 383.658 176.961 383.137 176.961H342.121V208.211H383.137C383.658 208.211 383.918 208.471 383.918 208.992L384.113 231.648C384.113 232.169 383.853 232.43 383.332 232.43H342.121V267.391H383.332C383.853 267.391 384.113 267.716 384.113 268.367V291.219C384.113 291.74 383.853 292 383.332 292ZM435.871 293.953C428.775 293.953 422.232 292.13 416.242 288.484C410.318 284.839 405.565 279.988 401.984 273.934C398.469 267.814 396.711 261.108 396.711 253.816V244.637C396.711 243.921 397.036 243.562 397.688 243.562H420.148C420.669 243.562 420.93 243.921 420.93 244.637V253.816C420.93 258.178 422.395 261.954 425.324 265.145C428.254 268.27 431.77 269.832 435.871 269.832C440.038 269.832 443.586 268.237 446.516 265.047C449.445 261.792 450.91 258.048 450.91 253.816C450.91 248.934 447.72 244.669 441.34 241.023C440.298 240.372 438.931 239.591 437.238 238.68C435.611 237.703 433.658 236.596 431.379 235.359C429.1 234.122 426.887 232.918 424.738 231.746C422.59 230.509 420.507 229.337 418.488 228.23C411.197 223.934 405.76 218.562 402.18 212.117C398.664 205.607 396.906 198.315 396.906 190.242C396.906 182.82 398.729 176.115 402.375 170.125C406.021 164.201 410.773 159.513 416.633 156.062C422.557 152.547 428.97 150.789 435.871 150.789C442.967 150.789 449.478 152.547 455.402 156.062C461.327 159.643 466.047 164.396 469.562 170.32C473.143 176.245 474.934 182.885 474.934 190.242V206.648C474.934 207.169 474.673 207.43 474.152 207.43H451.691C451.171 207.43 450.91 207.169 450.91 206.648L450.715 190.242C450.715 185.555 449.25 181.746 446.32 178.816C443.391 175.887 439.908 174.422 435.871 174.422C431.77 174.422 428.254 175.984 425.324 179.109C422.395 182.234 420.93 185.945 420.93 190.242C420.93 194.604 421.841 198.25 423.664 201.18C425.552 204.109 428.97 206.909 433.918 209.578C434.439 209.839 435.643 210.49 437.531 211.531C439.419 212.573 441.503 213.745 443.781 215.047C446.125 216.284 448.241 217.423 450.129 218.465C452.017 219.441 453.156 220.027 453.547 220.223C460.188 223.934 465.428 228.491 469.27 233.895C473.176 239.298 475.129 245.939 475.129 253.816C475.129 261.434 473.371 268.27 469.855 274.324C466.275 280.379 461.522 285.164 455.598 288.68C449.673 292.195 443.098 293.953 435.871 293.953Z" fill="white"/>
</svg>
