<svg xmlns="http://www.w3.org/2000/svg" version="1.1" xmlns:xlink="http://www.w3.org/1999/xlink" width="700" height="700"><svg width="700" height="700" viewBox="0 0 700 700" fill="none" xmlns="http://www.w3.org/2000/svg">
<rect width="700" height="700" rx="130" fill="url(#paint0_linear_1066_10)"></rect>
<path d="M324.952 555.114C340.437 555.114 351.428 612.605 359.986 602.116C368.136 591.627 341.038 567.995 341.038 548.016L344.255 149.76C344.255 130.281 367.932 109.146 359.375 98.6575C350.817 88.1688 338.592 82.9244 322.699 82.9244H113.65C101.425 82.9244 92.2564 86.9202 86.1439 94.9116C79.6239 102.404 76.3638 113.392 76.3638 127.876C76.3638 142.86 79.6239 154.348 86.1439 162.339C92.2564 169.831 101.425 173.577 113.65 173.577H277.466V302.438H127.098C114.873 302.438 105.5 306.434 98.9803 314.425C92.4602 321.917 90.102 335.087 90.102 342.974C90.102 357.458 93.2333 366.527 99.7533 374.519C106.273 382.51 114.873 386.348 127.098 386.348H202.282H277.466V556.415C277.466 597.371 293.982 555.114 324.952 555.114Z" fill="white"></path>
<path d="M326.207 610.909C310.314 610.909 298.089 605.665 289.531 595.176C280.974 584.687 276.695 569.703 276.695 550.224V143.412C276.695 123.933 280.974 108.949 289.531 98.4604C298.089 87.9717 310.314 82.7273 326.207 82.7273H474.13C504.693 82.7273 530.773 88.2214 552.371 99.2096C573.968 110.198 590.269 125.931 601.271 146.409C612.681 166.887 618.386 191.36 618.386 219.83C618.386 251.296 611.051 278.017 596.381 299.994C581.711 321.97 561.54 336.704 535.867 344.196V332.209C565.615 338.702 588.638 353.186 604.939 375.662C621.646 397.639 630 426.358 630 461.819C630 508.769 616.756 545.479 590.269 571.951C563.781 597.923 527.309 610.909 480.854 610.909H326.207ZM367.161 524.752H468.018C492.468 524.752 510.398 519.008 521.808 507.52C533.218 495.533 538.923 478.052 538.923 455.077C538.923 432.101 533.218 414.87 521.808 403.382C510.398 391.895 492.468 386.151 468.018 386.151H417.589H367.161V524.752ZM367.161 299.994H457.626C481.261 299.994 498.784 294.5 510.194 283.511C521.604 272.523 527.309 256.041 527.309 234.065C527.309 212.588 521.604 196.355 510.194 185.367C498.784 174.379 481.261 168.885 457.626 168.885H367.161V299.994Z" fill="white"></path>
<path d="M149.595 602.773C133.474 602.773 120.577 597.936 110.905 588.264C101.635 578.591 97 566.097 97 550.782C97 535.87 101.635 523.779 110.905 514.509C120.577 504.836 133.474 500 149.595 500C165.717 500 178.211 504.836 187.077 514.509C196.347 523.779 200.982 535.87 200.982 550.782C200.982 566.097 196.347 578.591 187.077 588.264C178.211 597.936 165.717 602.773 149.595 602.773Z" fill="white"></path>
<defs>
<linearGradient id="SvgjsLinearGradient1005" x1="700" y1="700" x2="287.532" y2="841.017" gradientUnits="userSpaceOnUse">
<stop offset="0.046875" stop-color="#00AEE4"></stop>
<stop offset="0.546875" stop-color="#2038D8"></stop>
<stop offset="0.927083" stop-color="#FF4CAA"></stop>
</linearGradient>
</defs>
</svg><style>@media (prefers-color-scheme: light) { :root { filter: none; } }
@media (prefers-color-scheme: dark) { :root { filter: none; } }
</style></svg>